<svg xmlns="http://www.w3.org/2000/svg" version="1.1" xmlns:xlink="http://www.w3.org/1999/xlink" xmlns:svgjs="http://svgjs.dev/svgjs" width="128" height="128" viewBox="0 0 128 128"><g transform="matrix(0.5228426395939086,0,0,0.5228426395939086,24.47732924937194,6.382794193714339)"><svg viewBox="0 0 66 102" data-background-color="#000000" preserveAspectRatio="xMidYMid meet" height="197" width="128" xmlns="http://www.w3.org/2000/svg" xmlns:xlink="http://www.w3.org/1999/xlink"><g id="tight-bounds" transform="matrix(1,0,0,1,5.977075629525629,6.057815458651817)"><svg viewBox="0 0 54.04584905705362 95.481" height="95.481" width="54.04584905705362"><g><svg viewBox="0 0 54.04584905705362 95.481" height="95.481" width="54.04584905705362"><g><svg viewBox="0 0 54.04584905705362 95.481" height="95.481" width="54.04584905705362"><g id="textblocktransform"><svg viewBox="0 0 54.04584905705362 95.481" height="95.481" width="54.04584905705362" id="textblock"><g><svg viewBox="0 0 54.04584905705362 95.481" height="95.481" width="54.04584905705362"><g><svg viewBox="0 0 54.04584905705362 95.481" height="95.481" width="54.04584905705362"><g><svg xmlns="http://www.w3.org/2000/svg" viewBox="17 7 30.000000000249706 53" x="0" y="0" height="95.481" width="54.04584905705362" class="icon-icon-0" data-fill-palette-color="accent" id="icon-0"><g fill="#b745ff" data-fill-palette-color="accent"><path d="M32 7A15 15 0 0 0 17 22V26.06A10.94 10.94 0 0 0 27.94 37H30V38A4 4 0 0 0 29.5 38 0.5 0.5 0 0 0 29 38.5V40.11A9.8 9.8 0 0 0 21 47.36 9 9 0 0 0 20.81 48.28L20.47 50.42A0.3 0.3 0 0 0 20.47 50.52L19.08 59H19V60H23V59.51A0.3 0.3 0 0 1 23 59.42L23.06 59 24.22 51.5A0.5 0.5 0 0 1 24.22 51.37L25 46.42A0.49 0.49 0 0 1 25.5 46H31.5V40A1 1 0 0 1 31.58 40.11 0.5 0.5 0 0 0 31.77 40.27 0.47 0.47 0 0 0 32.23 40.27 0.5 0.5 0 0 0 32.42 40.11 1 1 0 0 1 32.5 40V46H38.5A0.49 0.49 0 0 1 38.99 46.42L39.75 51.37A0.5 0.5 0 0 1 39.75 51.5L40.93 59 40.99 59.42A0.3 0.3 0 0 1 40.99 59.51V60H44.99V59H44.91L43.57 50.52A0.3 0.3 0 0 0 43.57 50.42L43.23 48.28A9 9 0 0 0 43.04 47.36 9.79 9.79 0 0 0 35.04 40.16V38.5A0.5 0.5 0 0 0 34.54 38 4 4 0 0 0 34.04 38V37H36.1A10.94 10.94 0 0 0 47 26.06V22A15 15 0 0 0 32 7M37.5 32H26.5A6.51 6.51 0 0 1 20 25.5V23.5A3.5 3.5 0 0 1 23.5 20H40.5A3.5 3.5 0 0 1 44 23.5V25.5A6.51 6.51 0 0 1 37.5 32M38 17.5A0.5 0.5 0 0 1 37 17.5 1.5 1.5 0 0 0 35.5 16H28.5A1.5 1.5 0 0 0 27 17.5 0.5 0.5 0 0 1 26 17.5 2.5 2.5 0 0 1 28.5 15H35.5A2.5 2.5 0 0 1 38 17.5M22 50H21.51L21.75 48.45 21.81 48.14V48.07H22A1 1 0 0 1 22 50.07ZM42.16 48A1.4 1.4 0 0 1 42.21 48.22V48.44L42.49 50H42A1 1 0 0 1 42 48ZM33 38.34L32.76 38.47H32.69L32.57 38.55A2.5 2.5 0 0 0 32.13 38.92H32.01A2.5 2.5 0 0 0 31.57 38.55L31.48 38.49 31.36 38.42A2 2 0 0 0 31.09 38.27V37H33.09Z" fill="#b745ff" data-fill-palette-color="accent"></path><path d="M31.6 22.15A0.48 0.48 0 0 0 30.9 22.15L25.4 27.65A0.48 0.48 0 0 0 25.4 28.35 0.48 0.48 0 0 0 26.1 28.35L31.6 22.85A0.48 0.48 0 0 0 31.6 22.15" fill="#b745ff" data-fill-palette-color="accent"></path><path d="M37.9 22.15L31.4 28.65A0.48 0.48 0 0 0 31.4 29.35 0.48 0.48 0 0 0 32.1 29.35L38.6 22.85A0.49 0.49 0 0 0 37.9 22.15" fill="#b745ff" data-fill-palette-color="accent"></path><polygon points="25.31 51 31.5 51 31.5 47 25.93 47 25.31 51" fill="#b745ff" data-fill-palette-color="accent"></polygon><polygon points="32.5 47 32.5 51 38.69 51 38.07 47 32.5 47" fill="#b745ff" data-fill-palette-color="accent"></polygon><polygon points="38.84 52 32.5 52 32.5 59 32.5 60 40 60 40 59.52 39.92 59 38.84 52" fill="#b745ff" data-fill-palette-color="accent"></polygon><polygon points="24.08 59 24 59.52 24 60 31.5 60 31.5 59 31.5 52 25.16 52 24.08 59" fill="#b745ff" data-fill-palette-color="accent"></polygon></g></svg></g></svg></g></svg></g></svg></g></svg></g></svg></g><defs></defs></svg><rect width="54.04584905705362" height="95.481" fill="none" stroke="none" visibility="hidden"></rect></g></svg></g></svg>