<svg xmlns="http://www.w3.org/2000/svg" version="1.1" xmlns:xlink="http://www.w3.org/1999/xlink" xmlns:svgjs="http://svgjs.dev/svgjs" width="2000" height="2000" viewBox="0 0 2000 2000"><g transform="matrix(1,0,0,1,0,0)"><svg viewBox="0 0 280 280" data-background-color="#000000" preserveAspectRatio="xMidYMid meet" height="2000" width="2000" xmlns="http://www.w3.org/2000/svg" xmlns:xlink="http://www.w3.org/1999/xlink"><g id="tight-bounds" transform="matrix(1,0,0,1,0,0)"><svg viewBox="0 0 280 280" height="280" width="280"><g><svg viewBox="0 0 280 280" height="280" width="280"><g><svg viewBox="0 0 280 280" height="280" width="280"><g id="textblocktransform"><svg viewBox="0 0 280 280" height="280" width="280" id="textblock"><g><svg viewBox="0 0 280 280" height="280" width="280"><g transform="matrix(1,0,0,1,57.50420886156945,57.50420886156945)"><svg viewBox="0 0 164.9915822768611 164.9915822768611" height="164.9915822768611" width="164.9915822768611"><g id="icon-0"><circle r="82" cx="82.49579113843055" cy="82.49579113843055" fill="#ffffff" data-fill-palette-color="accent"></circle><svg xmlns="http://www.w3.org/2000/svg" xmlns:xlink="http://www.w3.org/1999/xlink" version="1.1" x="24.748737341529164" y="24.74873734152917" viewBox="13.114038330227299 0.037 23.8752116697727 50.36300049472252" enable-background="new 0 0 50.4 50.4" xml:space="preserve" id="jxe-0" width="115.49410759380275" height="115.49410759380275" class="icon-jxe-0" data-fill-palette-color="quaternary"><g fill="#b884ff" data-fill-palette-color="quaternary"><path d="M35.619 22.013H35.336V24.43H35.619C37.446 24.43 37.446 22.013 35.619 22.013" fill="#b884ff" data-fill-palette-color="quaternary"></path><path d="M16.994 21.626L18.27 17.75A2.715 2.715 0 0 1 20.832 15.917 2.727 2.727 0 1 1 18.92 20.586z" fill="#b884ff" data-fill-palette-color="quaternary"></path><path d="M34.942 19.879C34.942 6.044 32.851 0.037 30.277 0.037 27.701 0.037 25.61 6.044 25.61 19.879 25.61 20.593 25.622 21.293 25.633 21.991H21.955V21.999H18.621C16.696 21.999 15.928 23.587 15.677 24.483L13.186 32.34C12.699 34.028 14.825 34.676 15.328 33.102L17.585 25.867H18.152S16.578 29.654 16.493 34.285C16.438 37.227 18.122 49.263 18.122 49.263 18.256 50.777 20.218 50.781 20.265 49.263L20.28 36.639H21.288L21.267 49.263C21.314 50.781 23.297 50.777 23.412 49.263 23.412 49.263 25.13 37.228 25.077 34.285 25.022 31.307 24.214 27.087 23.647 24.451H25.622C25.62 24.753 25.612 25.048 25.612 25.352 25.612 39.185 27.703 50.399 30.279 50.399 32.853 50.399 34.944 39.185 34.944 25.352 34.944 24.427 34.933 23.514 34.915 22.615 34.932 21.717 34.942 20.804 34.942 19.879" fill="#b884ff" data-fill-palette-color="quaternary"></path></g></svg></g></svg></g><g id="text-0"><path d="M20.789 106.356l12.274 3.822-0.811 2.606-26.725-8.321 3.376-10.843 2.395 0.746-2.564 8.237 9.659 3.007 2.395-7.693 2.396 0.746z" fill="#b884ff" data-fill-palette-color="primary"></path><path d="M33.937 71.955l12.88 8.45-1.387 2.115-15.948-10.463 1.387-2.115 1.496 0.982 0.302-0.46c-0.36-0.642-0.534-1.295-0.522-1.956 0.015-0.667 0.252-1.349 0.709-2.046v0c0.687-1.048 1.475-1.647 2.362-1.798 0.884-0.145 2.004 0.226 3.358 1.115v0c0.295 0.194 0.636 0.433 1.023 0.719 0.392 0.289 0.732 0.56 1.021 0.813v0l-1.333 2.031c-0.097-0.095-0.28-0.235-0.549-0.42-0.269-0.185-0.539-0.369-0.808-0.554-0.269-0.185-0.454-0.31-0.555-0.376v0c-0.808-0.53-1.446-0.754-1.915-0.67-0.469 0.083-0.901 0.425-1.296 1.027v0c-0.841 1.282-0.916 2.484-0.225 3.606z" fill="#b884ff" data-fill-palette-color="primary"></path><path d="M70.801 53.951v0c-1.649 1.395-3.043 2.129-4.185 2.204-1.141 0.075-2.236-0.456-3.286-1.593v0c-0.665-0.703-1.427-1.547-2.285-2.532-0.859-0.984-1.707-1.987-2.544-3.007-0.837-1.02-1.551-1.922-2.144-2.704v0c-0.969-1.249-1.312-2.438-1.028-3.569 0.283-1.13 1.229-2.375 2.837-3.735v0c1.516-1.283 2.828-1.956 3.935-2.02 1.107-0.064 2.189 0.457 3.246 1.562v0c0.317 0.334 0.852 0.925 1.604 1.773 0.756 0.853 1.507 1.802 2.252 2.848v0l-7.167 6.062c0.534 0.631 1.079 1.265 1.636 1.903 0.557 0.638 1.147 1.295 1.772 1.971v0c0.475 0.541 1.004 0.744 1.588 0.608 0.584-0.136 1.346-0.602 2.287-1.398v0c0.926-0.783 1.492-1.441 1.697-1.973 0.2-0.527 0.088-1.083-0.336-1.666v0c-0.434-0.575-1.067-1.323-1.898-2.244v0l1.854-1.569c0.292 0.242 0.599 0.558 0.921 0.95 0.318 0.386 0.598 0.743 0.84 1.07v0c0.927 1.241 1.29 2.392 1.088 3.453-0.207 1.066-1.102 2.268-2.684 3.606zM60.694 47.653v0l5.342-4.52c-0.552-0.694-1.091-1.351-1.616-1.972-0.521-0.616-0.898-1.021-1.132-1.215v0c-0.463-0.464-0.98-0.642-1.552-0.534-0.573 0.118-1.291 0.542-2.156 1.274v0c-0.972 0.822-1.573 1.514-1.805 2.077-0.227 0.567-0.135 1.105 0.277 1.612v0c0.456 0.601 0.9 1.172 1.332 1.714 0.432 0.542 0.869 1.063 1.31 1.564z" fill="#b884ff" data-fill-palette-color="primary"></path><path d="M98.408 37.118v0c-1.357 0.589-2.497 0.725-3.42 0.406-0.914-0.315-1.688-1.152-2.322-2.512v0c-0.476-0.963-0.978-2.027-1.506-3.194-0.528-1.166-1.045-2.358-1.553-3.576-0.507-1.218-0.966-2.367-1.376-3.445v0c-0.566-1.404-0.641-2.548-0.226-3.433 0.421-0.888 1.304-1.623 2.649-2.207v0c0.996-0.433 1.845-0.619 2.546-0.561 0.701 0.059 1.398 0.316 2.09 0.771v0l0.467-0.203-3.248-7.482 2.301-1 10.132 23.337-2.302 0.999-0.716-1.65-0.514 0.223c-0.149 0.777-0.438 1.451-0.866 2.021-0.428 0.571-1.14 1.073-2.136 1.506zM98.216 34.869v0c1.816-0.788 2.801-1.866 2.955-3.234v0l-4.665-10.747c-1.099-0.824-2.553-0.843-4.362-0.057v0c-0.838 0.364-1.386 0.765-1.646 1.205-0.256 0.431-0.26 0.949-0.012 1.553v0c0.707 1.829 1.469 3.667 2.285 5.514 0.816 1.847 1.59 3.545 2.321 5.095v0c0.279 0.576 0.659 0.924 1.139 1.042 0.486 0.116 1.148-0.008 1.985-0.371z" fill="#b884ff" data-fill-palette-color="primary"></path><path d="M158.689 17.712l-1.398 10.393-2.704-0.364 3.731-27.741 6.43 0.865c2.305 0.31 3.935 0.913 4.891 1.808 0.956 0.889 1.377 2.209 1.262 3.962v0c-0.07 1.47-0.192 2.805-0.367 4.005-0.176 1.207-0.396 2.418-0.66 3.634v0c-0.224 1.167-0.681 2.064-1.371 2.69-0.696 0.626-1.701 1.022-3.014 1.188v0l3.414 11.514-2.953-0.397-3.139-11.003zM164.413 3.352l-3.725-0.501-1.664 12.374 3.656 0.492c1.46 0.196 2.534 0.156 3.223-0.121 0.69-0.277 1.112-0.792 1.267-1.545v0c0.554-2.615 0.908-5.254 1.065-7.916v0c0.049-0.767-0.219-1.374-0.804-1.823-0.585-0.449-1.591-0.769-3.018-0.96z" fill="#b884ff" data-fill-palette-color="primary"></path><path d="M202.697 14.242l-1.092 2.599-2.332-0.98 1.092-2.599zM200.23 20.112l-7.39 17.584-2.35-0.987 7.39-17.584z" fill="#b884ff" data-fill-palette-color="primary"></path><path d="M216.303 52.514v0c-1.163-0.914-1.824-1.853-1.982-2.816-0.157-0.954 0.212-2.033 1.107-3.237v0c0.621-0.877 1.319-1.824 2.094-2.842 0.775-1.018 1.578-2.04 2.409-3.066 0.831-1.025 1.624-1.974 2.378-2.848v0c0.966-1.165 1.937-1.775 2.914-1.83 0.981-0.051 2.048 0.376 3.2 1.283v0c0.854 0.671 1.422 1.329 1.704 1.974 0.281 0.645 0.386 1.38 0.314 2.205v0l0.401 0.315 5.04-6.414 1.973 1.551-15.721 20.003-1.973-1.551 1.112-1.414-0.44-0.346c-0.755 0.238-1.485 0.304-2.19 0.198-0.706-0.105-1.485-0.494-2.34-1.165zM218.191 51.277v0c1.556 1.223 2.973 1.578 4.25 1.064v0l7.239-9.212c0.203-1.358-0.471-2.646-2.022-3.865v0c-0.718-0.564-1.332-0.856-1.842-0.875-0.501-0.021-0.958 0.222-1.373 0.726v0c-1.274 1.491-2.529 3.035-3.766 4.631-1.237 1.596-2.364 3.084-3.38 4.463v0c-0.374 0.519-0.5 1.019-0.376 1.498 0.129 0.483 0.553 1.006 1.27 1.57z" fill="#b884ff" data-fill-palette-color="primary"></path><path d="M240.657 78.742v0c-1.234-1.772-1.834-3.23-1.801-4.373 0.033-1.143 0.664-2.184 1.895-3.122v0c0.763-0.596 1.674-1.275 2.735-2.037 1.061-0.763 2.138-1.513 3.233-2.25 1.094-0.737 2.059-1.364 2.893-1.88v0c1.334-0.848 2.551-1.077 3.65-0.689 1.099 0.388 2.249 1.447 3.452 3.175v0c1.135 1.63 1.681 2.999 1.641 4.108-0.041 1.108-0.661 2.137-1.86 3.085v0c-0.362 0.285-1.001 0.761-1.915 1.43-0.92 0.673-1.936 1.331-3.047 1.975v0l-5.362-7.705c-0.678 0.472-1.361 0.955-2.048 1.45-0.687 0.494-1.397 1.021-2.129 1.579v0c-0.583 0.422-0.835 0.93-0.754 1.524 0.08 0.594 0.473 1.397 1.177 2.408v0c0.693 0.996 1.294 1.62 1.804 1.875 0.506 0.249 1.07 0.189 1.691-0.178v0c0.614-0.378 1.418-0.938 2.412-1.679v0l1.388 1.993c-0.268 0.268-0.612 0.544-1.032 0.828-0.414 0.28-0.796 0.525-1.144 0.736v0c-1.322 0.807-2.502 1.06-3.54 0.758-1.041-0.306-2.154-1.31-3.339-3.011zM247.877 69.271v0l3.998 5.744c0.743-0.484 1.448-0.959 2.115-1.424 0.662-0.461 1.101-0.799 1.316-1.013v0c0.506-0.417 0.731-0.915 0.677-1.495-0.063-0.581-0.419-1.337-1.066-2.266v0c-0.727-1.045-1.36-1.709-1.897-1.992-0.544-0.279-1.087-0.238-1.631 0.124v0c-0.641 0.397-1.252 0.786-1.832 1.166-0.58 0.38-1.14 0.765-1.68 1.156z" fill="#b884ff" data-fill-palette-color="primary"></path><path d="M269.207 101.361l-14.614 4.869-0.8-2.399 18.096-6.03 0.799 2.4-1.698 0.565 0.174 0.522c0.727 0.116 1.347 0.384 1.859 0.803 0.514 0.426 0.903 1.034 1.166 1.824v0c0.396 1.189 0.378 2.178-0.054 2.969-0.434 0.784-1.42 1.432-2.956 1.944v0c-0.335 0.112-0.734 0.231-1.198 0.357-0.47 0.129-0.894 0.228-1.271 0.297v0l-0.768-2.305c0.135-0.017 0.358-0.074 0.671-0.171 0.312-0.097 0.624-0.194 0.935-0.29 0.312-0.097 0.525-0.164 0.639-0.203v0c0.917-0.305 1.488-0.668 1.713-1.087 0.226-0.419 0.225-0.97-0.003-1.653v0c-0.485-1.454-1.381-2.258-2.69-2.412z" fill="#b884ff" data-fill-palette-color="primary"></path><path d="M15.284 144.419c0-1.772 1.436-3.208 3.207-3.207 1.772 0 3.208 1.436 3.208 3.207 0 1.772-1.436 3.208-3.208 3.208-1.772 0-3.208-1.436-3.207-3.208z" fill="#b884ff" data-fill-palette-color="primary"></path><path d="M267.203 144.419c0-1.772 1.436-3.208 3.208-3.207 1.772 0 3.208 1.436 3.208 3.207 0 1.772-1.436 3.208-3.208 3.208-1.772 0-3.208-1.436-3.208-3.208z" fill="#b884ff" data-fill-palette-color="primary"></path></g><g id="text-1"><path d="M27.128 180.509l-12.275 3.822-0.811-2.606 26.725-8.321 3.376 10.843-2.396 0.746-2.564-8.237-9.66 3.007 2.396 7.693-2.396 0.746z" fill="#b884ff" data-fill-palette-color="primary"></path><path d="M43.751 210.446l-12.881 8.45-1.387-2.115 15.948-10.462 1.387 2.114-1.496 0.982 0.302 0.459c0.733-0.074 1.4 0.026 2.002 0.301 0.606 0.28 1.138 0.768 1.595 1.465v0c0.687 1.048 0.923 2.009 0.708 2.883-0.219 0.869-1.006 1.748-2.36 2.636v0c-0.295 0.194-0.651 0.411-1.067 0.652-0.421 0.245-0.806 0.449-1.152 0.612v0l-1.333-2.031c0.126-0.051 0.327-0.163 0.605-0.336 0.277-0.174 0.553-0.347 0.83-0.521 0.277-0.174 0.465-0.293 0.565-0.359v0c0.808-0.53 1.267-1.027 1.378-1.49 0.111-0.463-0.031-0.996-0.426-1.597v0c-0.841-1.282-1.913-1.829-3.218-1.643z" fill="#b884ff" data-fill-palette-color="primary"></path><path d="M58.173 249.815v0c-1.649-1.395-2.604-2.648-2.867-3.761-0.263-1.113 0.079-2.281 1.027-3.504v0c0.583-0.772 1.289-1.663 2.117-2.674 0.828-1.01 1.676-2.013 2.544-3.007 0.867-0.995 1.638-1.849 2.311-2.562v0c1.071-1.163 2.187-1.698 3.349-1.606 1.162 0.092 2.546 0.818 4.154 2.178v0c1.516 1.283 2.398 2.465 2.644 3.546 0.246 1.081-0.088 2.235-1.002 3.46v0c-0.277 0.368-0.771 0.994-1.482 1.876-0.716 0.887-1.527 1.785-2.435 2.693v0l-7.167-6.063c-0.534 0.631-1.069 1.274-1.605 1.929-0.536 0.655-1.086 1.346-1.65 2.074v0c-0.455 0.558-0.567 1.114-0.336 1.667 0.231 0.553 0.817 1.228 1.758 2.024v0c0.926 0.783 1.668 1.232 2.226 1.346 0.553 0.11 1.082-0.093 1.588-0.608v0c0.495-0.524 1.128-1.272 1.898-2.244v0l1.854 1.569c-0.19 0.328-0.451 0.683-0.783 1.066-0.328 0.377-0.633 0.713-0.916 1.005v0c-1.07 1.12-2.145 1.669-3.225 1.646-1.085-0.028-2.419-0.711-4.002-2.05zM62.709 238.804v0l5.342 4.519c0.593-0.66 1.152-1.3 1.677-1.92 0.521-0.616 0.858-1.055 1.011-1.319v0c0.381-0.533 0.471-1.073 0.269-1.618-0.211-0.545-0.749-1.184-1.614-1.916v0c-0.972-0.822-1.754-1.301-2.347-1.435-0.597-0.13-1.112 0.05-1.544 0.54v0c-0.517 0.549-1.007 1.082-1.469 1.598-0.463 0.516-0.904 1.033-1.325 1.551z" fill="#b884ff" data-fill-palette-color="primary"></path><path d="M90.622 269.656v0c-1.357-0.589-2.234-1.33-2.632-2.222-0.394-0.883-0.311-2.02 0.249-3.411v0c0.378-1.005 0.813-2.099 1.305-3.281 0.491-1.182 1.009-2.374 1.553-3.576 0.544-1.202 1.07-2.322 1.577-3.358v0c0.639-1.372 1.424-2.208 2.354-2.51 0.936-0.298 2.076-0.156 3.421 0.429v0c0.996 0.433 1.713 0.925 2.149 1.477 0.436 0.552 0.724 1.237 0.863 2.053v0l0.468 0.203 3.248-7.482 2.302 0.999-10.132 23.337-2.302-0.999 0.717-1.651-0.514-0.223c-0.67 0.421-1.359 0.67-2.068 0.748-0.709 0.077-1.562-0.101-2.558-0.533zM92.134 267.98v0c1.816 0.788 3.276 0.772 4.38-0.049v0l4.666-10.747c-0.148-1.365-1.127-2.44-2.937-3.226v0c-0.838-0.364-1.505-0.49-2.004-0.379-0.49 0.107-0.871 0.458-1.143 1.051v0c-0.854 1.765-1.676 3.577-2.468 5.435-0.792 1.858-1.504 3.583-2.138 5.175v0c-0.23 0.597-0.225 1.112 0.017 1.543 0.247 0.434 0.79 0.833 1.627 1.197z" fill="#b884ff" data-fill-palette-color="primary"></path><path d="M158.436 269.243l1.398 10.393-2.705 0.364-3.731-27.741 6.429-0.865c2.305-0.31 4.037-0.16 5.195 0.451 1.157 0.604 1.912 1.767 2.265 3.488v0c0.321 1.436 0.556 2.756 0.704 3.961 0.149 1.21 0.257 2.437 0.323 3.678v0c0.092 1.185-0.112 2.17-0.611 2.957-0.506 0.788-1.37 1.435-2.593 1.942v0l6.335 10.203-2.952 0.397-5.936-9.782zM160.162 253.881l-3.725 0.501 1.664 12.375 3.656-0.492c1.46-0.196 2.485-0.519 3.077-0.969 0.592-0.449 0.863-1.058 0.814-1.824v0c-0.157-2.669-0.512-5.307-1.065-7.916v0c-0.155-0.752-0.574-1.268-1.257-1.546-0.683-0.278-1.738-0.321-3.164-0.129z" fill="#b884ff" data-fill-palette-color="primary"></path><path d="M190.372 245.271l1.093 2.599-2.332 0.98-1.092-2.599zM192.839 251.141l7.39 17.584-2.35 0.988-7.39-17.584z" fill="#b884ff" data-fill-palette-color="primary"></path><path d="M228.385 251.697v0c-1.163 0.914-2.232 1.334-3.206 1.26-0.964-0.073-1.925-0.686-2.883-1.84v0c-0.705-0.811-1.461-1.713-2.267-2.707-0.806-0.994-1.609-2.015-2.409-3.065-0.8-1.05-1.535-2.044-2.205-2.984v0c-0.903-1.214-1.267-2.302-1.09-3.263 0.182-0.965 0.85-1.901 2.003-2.807v0c0.854-0.671 1.628-1.067 2.321-1.189 0.693-0.121 1.432-0.049 2.216 0.216v0l0.401-0.315-5.04-6.413 1.972-1.551 15.721 20.003-1.973 1.551-1.112-1.415-0.44 0.346c0.052 0.789-0.056 1.514-0.325 2.175-0.269 0.661-0.831 1.327-1.684 1.998zM227.629 249.57v0c1.556-1.223 2.236-2.516 2.038-3.877v0l-7.24-9.212c-1.272-0.518-2.683-0.167-4.233 1.051v0c-0.718 0.564-1.147 1.092-1.287 1.583-0.138 0.482-0.011 0.984 0.382 1.506v0c1.148 1.59 2.351 3.175 3.609 4.754 1.258 1.579 2.438 3.026 3.538 4.339v0c0.416 0.487 0.872 0.726 1.366 0.719 0.5-0.011 1.108-0.299 1.827-0.863z" fill="#b884ff" data-fill-palette-color="primary"></path><path d="M256.705 221.266v0c-1.234 1.772-2.392 2.842-3.475 3.208-1.083 0.367-2.279 0.135-3.586-0.693v0c-0.824-0.508-1.777-1.127-2.861-1.857-1.084-0.73-2.161-1.48-3.232-2.25-1.072-0.77-1.994-1.457-2.768-2.06v0c-1.258-0.957-1.896-2.018-1.914-3.183-0.017-1.165 0.576-2.612 1.779-4.341v0c1.135-1.63 2.228-2.618 3.282-2.965 1.053-0.347 2.233-0.123 3.539 0.673v0c0.393 0.241 1.062 0.674 2.006 1.299 0.951 0.629 1.921 1.353 2.91 2.171v0l-5.362 7.705c0.678 0.472 1.369 0.944 2.071 1.417 0.702 0.473 1.442 0.955 2.22 1.447v0c0.598 0.4 1.162 0.46 1.69 0.178 0.529-0.282 1.145-0.928 1.85-1.94v0c0.693-0.996 1.07-1.776 1.131-2.342 0.057-0.561-0.194-1.069-0.754-1.524v0c-0.568-0.444-1.372-1.004-2.412-1.679v0l1.388-1.994c0.344 0.159 0.723 0.385 1.134 0.68 0.406 0.291 0.769 0.564 1.087 0.818v0c1.216 0.96 1.863 1.979 1.941 3.056 0.074 1.083-0.48 2.475-1.664 4.176zM245.316 217.785v0l3.998-5.744c-0.712-0.528-1.402-1.025-2.07-1.489-0.662-0.461-1.131-0.755-1.407-0.882v0c-0.567-0.329-1.112-0.368-1.637-0.116-0.523 0.261-1.108 0.857-1.755 1.787v0c-0.727 1.045-1.13 1.869-1.209 2.471-0.073 0.607 0.154 1.102 0.683 1.487v0c0.595 0.463 1.172 0.901 1.729 1.313 0.557 0.412 1.113 0.803 1.668 1.173z" fill="#b884ff" data-fill-palette-color="primary"></path><path d="M258.072 183.768l14.615 4.87-0.8 2.399-18.095-6.03 0.799-2.399 1.698 0.566 0.174-0.522c-0.512-0.529-0.847-1.115-1.006-1.757-0.156-0.649-0.102-1.369 0.161-2.16v0c0.396-1.189 1.004-1.97 1.824-2.342 0.818-0.367 1.995-0.294 3.531 0.218v0c0.335 0.112 0.726 0.256 1.173 0.432 0.453 0.179 0.851 0.354 1.195 0.525v0l-0.768 2.305c-0.118-0.067-0.331-0.156-0.639-0.266-0.308-0.11-0.615-0.219-0.923-0.328-0.308-0.11-0.518-0.183-0.632-0.222v0c-0.917-0.305-1.591-0.358-2.023-0.158-0.432 0.2-0.762 0.642-0.99 1.325v0c-0.485 1.454-0.249 2.635 0.706 3.544z" fill="#b884ff" data-fill-palette-color="primary"></path></g></svg></g></svg></g></svg></g></svg></g><defs></defs></svg><rect width="280" height="280" fill="none" stroke="none" visibility="hidden"></rect></g></svg></g></svg>